<svg width="45" height="45" fill="none" xmlns="http://www.w3.org/2000/svg"><path d="M30.938 5.625c-3.263 0-6.394 1.519-8.438 3.919-2.044-2.4-5.175-3.919-8.438-3.919-5.774 0-10.312 4.537-10.312 10.313 0 7.087 6.375 12.862 16.031 21.637l2.719 2.456 2.719-2.475C34.875 28.8 41.25 23.025 41.25 15.938c0-5.776-4.538-10.313-10.313-10.313zm-8.25 29.156l-.188.188-.188-.188C13.387 26.7 7.5 21.356 7.5 15.938c0-3.75 2.813-6.563 6.563-6.563 2.887 0 5.7 1.856 6.693 4.425h3.506c.976-2.569 3.788-4.425 6.675-4.425 3.75 0 6.563 2.813 6.563 6.563 0 5.418-5.887 10.762-14.813 18.843z" fill="#1C8B82"/></svg>