<svg width="44" height="34" fill="none" xmlns="http://www.w3.org/2000/svg"><path d="M18.92 17.033c-.874.828-1.976 1.313-3.13 1.377a4.859 4.859 0 01-3.241-1.028c-.945-.729-1.64-1.783-1.974-2.994a6.173 6.173 0 01.13-3.69c.42-1.18 1.187-2.173 2.18-2.82a4.81 4.81 0 013.304-.749c1.147.161 2.211.738 3.024 1.638.812.9 1.326 2.073 1.46 3.33.46 2.564.455 5.62-.601 8.358-1.116 2.89-3.366 5.327-7.208 6.428a.89.89 0 01-.741-.106 1.005 1.005 0 01-.286-.276 1.108 1.108 0 01-.167-.374 1.163 1.163 0 01.103-.81c.066-.121.152-.227.255-.31a.939.939 0 01.344-.18c3.275-.94 5.037-2.932 5.911-5.2.316-.83.53-1.702.637-2.594zm12.941 0c-.874.828-1.976 1.313-3.13 1.377a4.86 4.86 0 01-3.24-1.028c-.946-.729-1.641-1.783-1.975-2.994a6.174 6.174 0 01.13-3.69c.42-1.18 1.187-2.173 2.18-2.82a4.81 4.81 0 013.304-.749c1.147.161 2.211.738 3.024 1.638.812.9 1.326 2.073 1.46 3.33.46 2.564.455 5.62-.601 8.358-1.116 2.89-3.366 5.327-7.208 6.428a.889.889 0 01-.741-.106 1.004 1.004 0 01-.286-.276 1.106 1.106 0 01-.167-.374 1.159 1.159 0 01.104-.81c.065-.121.151-.227.254-.31a.937.937 0 01.344-.18c3.275-.94 5.037-2.932 5.912-5.2.315-.83.53-1.702.636-2.594z" fill="#1C8B82"/></svg>