<svg width="19" height="19" fill="none" xmlns="http://www.w3.org/2000/svg"><path d="M17.167.5H1.829C1.095.5.5 1.081.5 1.797v15.404c0 .717.595 1.299 1.329 1.299h15.338c.734 0 1.333-.582 1.333-1.299V1.797C18.5 1.081 17.9.5 17.167.5zM5.838 15.838h-2.67v-8.59h2.67v8.59zM4.503 6.075a1.548 1.548 0 110-3.095 1.548 1.548 0 010 3.095zm11.335 9.764H13.17v-4.176c0-.997-.02-2.278-1.388-2.278-1.39 0-1.601 1.085-1.601 2.205v4.25H7.513V7.25h2.561v1.173h.037c.356-.675 1.227-1.388 2.526-1.388 2.702 0 3.2 1.779 3.2 4.093v4.711z" fill="#fff"/></svg>