<svg width="45" height="45" fill="none" xmlns="http://www.w3.org/2000/svg"><path d="M22.125 20.438c-4.256-1.107-5.625-2.25-5.625-4.032 0-2.043 1.894-3.468 5.063-3.468 3.337 0 4.575 1.593 4.687 3.937h4.144c-.131-3.225-2.1-6.188-6.019-7.144V5.625H18.75v4.05c-3.637.787-6.562 3.15-6.562 6.769 0 4.331 3.58 6.487 8.812 7.744 4.688 1.125 5.625 2.774 5.625 4.518 0 1.294-.919 3.357-5.062 3.357-3.863 0-5.382-1.726-5.588-3.938H11.85c.225 4.106 3.3 6.413 6.9 7.181v4.069h5.625v-4.031c3.656-.694 6.563-2.813 6.563-6.657 0-5.325-4.557-7.143-8.813-8.25z" fill="#1C8B82"/></svg>