<svg width="24" height="24" fill="none" xmlns="http://www.w3.org/2000/svg"><path d="M16.566 21.998h.028c.528 0 1.027-.207 1.405-.585l2.712-2.712a1 1 0 000-1.415l-4-4a1 1 0 00-1.414 0l-1.594 1.595c-.739-.22-2.118-.72-2.992-1.595-.874-.873-1.374-2.252-1.594-2.992l1.594-1.593a1 1 0 000-1.414l-4-4a1.03 1.03 0 00-1.414 0L2.586 5.999c-.38.38-.594.902-.586 1.435.023 1.424.4 6.37 4.298 10.267 3.898 3.898 8.844 4.274 10.268 4.297zM6.005 5.409l2.586 2.586-1.293 1.293a.996.996 0 00-.271.911c.024.115.611 2.842 2.271 4.502 1.66 1.66 4.387 2.248 4.502 2.271a.993.993 0 00.912-.27l1.293-1.293 2.586 2.586L16.585 20c-1.248-.021-5.518-.357-8.873-3.712C4.346 12.92 4.02 8.636 4 7.412l2.005-2.005zm13.994 5.59h2c0-5.13-3.873-8.998-9.01-8.998v2c4.062 0 7.01 2.943 7.01 6.998z" fill="#444"/><path d="M12.999 8c2.103 0 3 .897 3 3h2c0-3.225-1.775-5-5-5v2z" fill="#444"/></svg>