<svg width="45" height="45" fill="none" xmlns="http://www.w3.org/2000/svg"><path d="M33.75 30.15c-1.425 0-2.7.563-3.675 1.444l-13.369-7.782c.094-.43.169-.862.169-1.312 0-.45-.075-.881-.169-1.313l13.219-7.706A5.593 5.593 0 0033.75 15a5.617 5.617 0 005.625-5.625A5.617 5.617 0 0033.75 3.75a5.617 5.617 0 00-5.625 5.625c0 .45.075.881.169 1.313l-13.219 7.706a5.598 5.598 0 00-3.825-1.519A5.617 5.617 0 005.625 22.5a5.617 5.617 0 005.625 5.625 5.598 5.598 0 003.825-1.519l13.35 7.8c-.094.394-.15.806-.15 1.219A5.481 5.481 0 0033.75 41.1a5.481 5.481 0 005.475-5.475 5.481 5.481 0 00-5.475-5.475z" fill="#1C8B82"/></svg>