<svg width="19" height="19" fill="none" xmlns="http://www.w3.org/2000/svg"><path d="M16.75.5H2.25C1.288.5.5 1.288.5 2.25v14.5c0 .962.788 1.75 1.75 1.75h14.5c.962 0 1.75-.788 1.75-1.75V2.25c0-.962-.788-1.75-1.75-1.75zm-3.071 15.043a8.076 8.076 0 01-1.575.575 6.68 6.68 0 01-1.524.165c-.62 0-1.168-.079-1.645-.235a3.55 3.55 0 01-1.22-.67c-.336-.29-.57-.598-.7-.925-.13-.326-.194-.8-.194-1.42V8.276h-1.5v-1.92c.533-.173.99-.421 1.37-.745.38-.323.69-.719.915-1.164.23-.453.388-1.03.474-1.73h1.93v3.43h3.219v2.129h-3.22v3.479c0 .786.042 1.29.126 1.514.083.224.238.402.464.535.3.18.643.27 1.03.27.687 0 1.37-.223 2.05-.67v2.139z" fill="#fff"/></svg>