<svg width="21" height="17" fill="none" xmlns="http://www.w3.org/2000/svg"><path d="M20.125 2.53a7.887 7.887 0 01-2.268.622A3.96 3.96 0 0019.593.967a7.896 7.896 0 01-2.508.958A3.945 3.945 0 0014.202.678a3.95 3.95 0 00-3.847 4.85 11.212 11.212 0 01-8.14-4.127 3.948 3.948 0 001.222 5.273 3.94 3.94 0 01-1.789-.494v.05a3.952 3.952 0 003.168 3.872 3.972 3.972 0 01-1.784.068 3.954 3.954 0 003.69 2.743 7.926 7.926 0 01-5.848 1.635 11.178 11.178 0 006.054 1.774c7.265 0 11.237-6.017 11.237-11.236 0-.171-.004-.342-.011-.512a8.008 8.008 0 001.97-2.044z" fill="#fff"/></svg>