<svg width="14" height="10" viewBox="0 0 14 10" fill="none" xmlns="http://www.w3.org/2000/svg">
<path d="M13.7316 5.55475L11.0649 9.55475C10.9737 9.69184 10.85 9.80423 10.7049 9.88192C10.5597 9.95961 10.3976 10.0002 10.2329 10H0.500417C0.409931 9.99998 0.321146 9.9754 0.243528 9.92889C0.16591 9.88238 0.102368 9.81568 0.0596769 9.7359C0.0169855 9.65612 -0.00325498 9.56624 0.00111305 9.47586C0.00548107 9.38548 0.0342939 9.29798 0.0844799 9.22269L2.89948 5.00056L0.0844799 0.777376C0.0342741 0.702077 0.00544699 0.614563 0.00107275 0.524167C-0.00330148 0.433771 0.0169412 0.343883 0.0596421 0.264088C0.102343 0.184294 0.165901 0.117585 0.243537 0.071076C0.321174 0.024567 0.409978 2.09437e-06 0.50048 5.47732e-07H10.2329C10.3976 -0.000171946 10.5597 0.0403998 10.7049 0.118099C10.85 0.195798 10.9737 0.30821 11.0649 0.445313L13.7316 4.44531C13.8414 4.60946 13.9001 4.80253 13.9001 5.00003C13.9001 5.19754 13.8414 5.3906 13.7316 5.55475Z" fill="#30D5C8"/>
</svg>
