<svg width="44" height="34" viewBox="0 0 44 34" fill="none" xmlns="http://www.w3.org/2000/svg">
<path d="M18.92 17.0326C18.0463 17.8614 16.9442 18.3461 15.7896 18.4095C14.6349 18.4729 13.4941 18.1113 12.549 17.3824C11.6039 16.6535 10.9088 15.5992 10.5747 14.3876C10.2406 13.176 10.2866 11.8769 10.7054 10.6972C11.1242 9.51759 11.8916 8.52537 12.8855 7.87874C13.8793 7.23211 15.0423 6.96828 16.189 7.12932C17.3357 7.29036 18.4002 7.867 19.2127 8.76731C20.0252 9.66762 20.5391 10.8398 20.6723 12.0969C21.133 14.6611 21.1278 17.7169 20.0718 20.4553C18.9563 23.3453 16.7058 25.7819 12.8636 26.8827C12.7398 26.9195 12.6107 26.9292 12.4835 26.911C12.3564 26.8929 12.2337 26.8474 12.1228 26.7771C12.0118 26.7068 11.9146 26.6131 11.8369 26.5015C11.7592 26.3898 11.7024 26.2624 11.6699 26.1266C11.6375 25.9908 11.6299 25.8493 11.6476 25.7103C11.6654 25.5713 11.7081 25.4375 11.7734 25.3167C11.8386 25.1959 11.9251 25.0904 12.0278 25.0063C12.1306 24.9223 12.2475 24.8614 12.3718 24.8271C15.6472 23.8879 17.4085 21.8946 18.2833 19.6279C18.5989 18.7972 18.8129 17.9246 18.92 17.0326Z" fill="#1C8B82"/>
<path d="M31.8612 17.0326C30.9874 17.8614 29.8854 18.3461 28.7307 18.4095C27.5761 18.4729 26.4353 18.1113 25.4901 17.3824C24.545 16.6535 23.85 15.5992 23.5159 14.3876C23.1818 13.176 23.2278 11.8769 23.6465 10.6972C24.0653 9.51759 24.8328 8.52537 25.8266 7.87874C26.8205 7.23211 27.9834 6.96828 29.1301 7.12932C30.2769 7.29036 31.3413 7.867 32.1539 8.76731C32.9664 9.66762 33.4802 10.8398 33.6134 12.0969C34.0741 14.6611 34.069 17.7169 33.013 20.4553C31.8974 23.3453 29.647 25.7819 25.8047 26.8827C25.681 26.9195 25.5518 26.9292 25.4247 26.911C25.2975 26.8929 25.1749 26.8474 25.0639 26.7771C24.9529 26.7068 24.8558 26.6131 24.7781 26.5015C24.7003 26.3898 24.6436 26.2624 24.6111 26.1266C24.5786 25.9908 24.571 25.8493 24.5888 25.7103C24.6065 25.5713 24.6493 25.4375 24.7145 25.3167C24.7798 25.1959 24.8663 25.0904 24.969 25.0063C25.0717 24.9223 25.1886 24.8614 25.313 24.8271C28.5884 23.8879 30.3497 21.8946 31.2245 19.6279C31.54 18.7972 31.7541 17.9246 31.8612 17.0326Z" fill="#1C8B82"/>
</svg>