<svg width="45" height="45" viewBox="0 0 45 45" fill="none" xmlns="http://www.w3.org/2000/svg">
<path d="M22.1251 20.4375C17.8688 19.3312 16.5001 18.1875 16.5001 16.4062C16.5001 14.3625 18.3938 12.9375 21.5626 12.9375C24.9001 12.9375 26.1376 14.5312 26.2501 16.875H30.3938C30.2626 13.65 28.2938 10.6875 24.3751 9.73125V5.625H18.7501V9.675C15.1126 10.4625 12.1876 12.825 12.1876 16.4438C12.1876 20.775 15.7688 22.9312 21.0001 24.1875C25.6876 25.3125 26.6251 26.9625 26.6251 28.7063C26.6251 30 25.7063 32.0625 21.5626 32.0625C17.7001 32.0625 16.1813 30.3375 15.9751 28.125H11.8501C12.0751 32.2313 15.1501 34.5375 18.7501 35.3062V39.375H24.3751V35.3438C28.0313 34.65 30.9376 32.5312 30.9376 28.6875C30.9376 23.3625 26.3813 21.5437 22.1251 20.4375Z" fill="#1C8B82"/>
</svg>
