<svg width="19" height="19" viewBox="0 0 19 19" fill="none" xmlns="http://www.w3.org/2000/svg">
<path d="M7.62492 0.75C8.90479 0.74992 10.1593 1.1071 11.2471 1.78134C12.335 2.45558 13.2131 3.4201 13.7825 4.56633C14.3519 5.71255 14.59 6.99496 14.4701 8.2692C14.3502 9.54343 13.8769 10.7589 13.1037 11.7787L18.2874 16.9625C18.4536 17.13 18.5505 17.354 18.5588 17.5898C18.5672 17.8256 18.4862 18.0559 18.3322 18.2347C18.1782 18.4135 17.9625 18.5276 17.728 18.5543C17.4936 18.581 17.2577 18.5183 17.0674 18.3787L16.9624 18.2875L11.7787 13.1037C10.9094 13.7627 9.89577 14.2054 8.82158 14.3952C7.74739 14.5849 6.64346 14.5164 5.60101 14.1952C4.55855 13.874 3.60749 13.3093 2.8264 12.5478C2.04532 11.7864 1.45663 10.85 1.10898 9.81607C0.761337 8.78213 0.664709 7.6803 0.827082 6.60163C0.989456 5.52296 1.40617 4.4984 2.0428 3.61262C2.67942 2.72684 3.51768 2.00526 4.48832 1.5075C5.45895 1.00974 6.5341 0.75009 7.62492 0.75ZM7.62492 2.625C6.29884 2.625 5.02707 3.15178 4.08939 4.08947C3.15171 5.02715 2.62492 6.29892 2.62492 7.625C2.62492 8.95108 3.15171 10.2229 4.08939 11.1605C5.02707 12.0982 6.29884 12.625 7.62492 12.625C8.95101 12.625 10.2228 12.0982 11.1605 11.1605C12.0981 10.2229 12.6249 8.95108 12.6249 7.625C12.6249 6.29892 12.0981 5.02715 11.1605 4.08947C10.2228 3.15178 8.95101 2.625 7.62492 2.625Z" fill="#444444"/>
</svg>

