<svg width="48" height="48" viewBox="0 0 48 48" fill="none" xmlns="http://www.w3.org/2000/svg">
<path fill-rule="evenodd" clip-rule="evenodd" d="M34 4C28.477 4 24 8.477 24 14V23C24 23.2652 24.1054 23.5196 24.2929 23.7071C24.4804 23.8946 24.7348 24 25 24H34C39.523 24 44 19.523 44 14C44 8.477 39.523 4 34 4ZM26 14C26 12.4177 26.4692 10.871 27.3482 9.55544C28.2273 8.23984 29.4767 7.21447 30.9385 6.60896C32.4003 6.00346 34.0089 5.84504 35.5607 6.15372C37.1126 6.4624 38.538 7.22433 39.6569 8.34315C40.7757 9.46197 41.5376 10.8874 41.8463 12.4393C42.155 13.9911 41.9965 15.5997 41.391 17.0615C40.7855 18.5233 39.7602 19.7727 38.4446 20.6518C37.129 21.5308 35.5823 22 34 22H26V14ZM7 11.778C7 11.352 7.352 11 7.778 11H14C14.425 11 14.778 11.352 14.778 11.778C14.778 14.104 15.15 16.34 15.838 18.43C15.8825 18.5686 15.8876 18.7168 15.8526 18.8581C15.8176 18.9994 15.744 19.1282 15.64 19.23L11.215 23.655L11.545 24.302C14.201 29.524 18.479 33.782 23.695 36.454L24.343 36.786L28.769 32.36C28.8693 32.2596 28.9955 32.189 29.1336 32.156C29.2716 32.123 29.4161 32.1289 29.551 32.173L29.561 32.176C31.7106 32.8826 33.9592 33.2417 36.222 33.24C36.648 33.24 37 33.592 37 34.018V40.222C36.9987 40.4279 36.9163 40.6251 36.7707 40.7707C36.6251 40.9163 36.4279 40.9987 36.222 41C20.082 41 7 27.919 7 11.778ZM7.778 9C7.04163 9.00132 6.33581 9.29443 5.81512 9.81512C5.29443 10.3358 5.00132 11.0416 5 11.778C5 29.023 18.977 43 36.222 43C36.9584 42.9987 37.6642 42.7056 38.1849 42.1849C38.7056 41.6642 38.9987 40.9584 39 40.222V34.018C38.9987 33.2816 38.7056 32.5758 38.1849 32.0551C37.6642 31.5344 36.9584 31.2413 36.222 31.24C34.1744 31.2418 32.1396 30.9174 30.194 30.279C29.7056 30.1149 29.1811 30.0905 28.6795 30.2083C28.178 30.3261 27.7193 30.5816 27.355 30.946L23.966 34.335C19.6186 31.9562 16.0436 28.3819 13.664 24.035L17.054 20.645C17.4175 20.284 17.6743 19.8298 17.7962 19.3322C17.9181 18.8347 17.9004 18.3131 17.745 17.825L17.743 17.818L17.741 17.811C17.1 15.8643 16.7749 13.8275 16.778 11.778C16.7767 11.0416 16.4836 10.3358 15.9629 9.81512C15.4422 9.29443 14.7364 9.00132 14 9H7.778ZM29 13H33V9H35V13H39V15H35V19H33V15H29V13Z" fill="#1C8B82"/>
</svg>
