<svg width="19" height="19" viewBox="0 0 19 19" fill="none" xmlns="http://www.w3.org/2000/svg">
<path d="M16.75 0.5H2.25C1.2875 0.5 0.5 1.2875 0.5 2.25V16.75C0.5 17.7125 1.2875 18.5 2.25 18.5H16.75C17.7125 18.5 18.5 17.7125 18.5 16.75V2.25C18.5 1.2875 17.7125 0.5 16.75 0.5ZM13.6787 15.543C13.099 15.816 12.574 16.0083 12.1042 16.118C11.6342 16.228 11.126 16.2827 10.5798 16.2827C9.96 16.2827 9.41175 16.2045 8.935 16.048C8.4585 15.8913 8.052 15.6675 7.7155 15.3785C7.37875 15.0883 7.1455 14.78 7.01575 14.4533C6.88575 14.127 6.82075 13.6538 6.82075 13.0338V8.2755H5.32125V6.356C5.854 6.18275 6.311 5.93475 6.69075 5.61125C7.07069 5.28827 7.38177 4.89216 7.6055 4.4465C7.83575 3.99375 7.99375 3.41725 8.08025 2.7175H10.0098V6.14625H13.229V8.27575H10.0098V11.7548C10.0098 12.541 10.0513 13.0458 10.1348 13.2695C10.2178 13.4928 10.373 13.671 10.5992 13.8043C10.8993 13.984 11.2425 14.0742 11.629 14.0742C12.3155 14.0742 12.9987 13.8507 13.6785 13.404V15.543H13.6787Z" fill="white"/>
</svg>
