<svg width="21" height="17" viewBox="0 0 21 17" fill="none" xmlns="http://www.w3.org/2000/svg">
<path d="M20.1248 2.53023C19.404 2.84954 18.6394 3.05903 17.8565 3.15173C18.6811 2.65833 19.2982 1.88193 19.5928 0.967225C18.8177 1.42736 17.9695 1.75138 17.085 1.92523C16.7155 1.53108 16.269 1.21703 15.7731 1.00252C15.2772 0.788021 14.7426 0.677642 14.2023 0.678225C12.0213 0.678225 10.2528 2.44622 10.2528 4.62772C10.2528 4.93697 10.2878 5.23873 10.3553 5.52798C7.07277 5.36322 4.16277 3.79073 2.21477 1.40098C1.86354 2.00374 1.67898 2.68909 1.68002 3.38672C1.67951 4.03698 1.83962 4.67729 2.14614 5.25077C2.45265 5.82424 2.89608 6.31313 3.43702 6.67397C2.80995 6.65406 2.1967 6.48469 1.64827 6.17998C1.64777 6.19648 1.64777 6.21272 1.64777 6.22972C1.64777 8.14272 3.00902 9.73898 4.81552 10.1022C4.23384 10.2597 3.62395 10.2828 3.03202 10.1697C3.53452 11.7385 4.99302 12.8807 6.72127 12.9127C5.32225 14.0106 3.59465 14.6061 1.81627 14.6035C1.49752 14.6035 1.18327 14.585 0.874023 14.5482C2.67986 15.7085 4.78156 16.3244 6.92802 16.3222C14.1925 16.3222 18.165 10.3045 18.165 5.08597C18.165 4.91497 18.161 4.74423 18.1535 4.57448C18.9272 4.01595 19.5947 3.32365 20.1248 2.53023Z" fill="white"/>
</svg>
