<svg width="10" height="10" viewBox="0 0 10 10" fill="none" xmlns="http://www.w3.org/2000/svg">
<path fill-rule="evenodd" clip-rule="evenodd" d="M7.79479 2.20541C7.95751 2.36813 7.95751 2.63195 7.79479 2.79467L2.79479 7.79467C2.63207 7.95739 2.36825 7.95739 2.20553 7.79467C2.04282 7.63195 2.04282 7.36813 2.20553 7.20541L7.20554 2.20541C7.36825 2.04269 7.63207 2.04269 7.79479 2.20541Z" fill="black"/>
<path fill-rule="evenodd" clip-rule="evenodd" d="M2.20553 2.20541C2.36825 2.04269 2.63207 2.04269 2.79479 2.20541L7.79479 7.20541C7.95751 7.36813 7.95751 7.63195 7.79479 7.79467C7.63207 7.95739 7.36825 7.95739 7.20554 7.79467L2.20553 2.79467C2.04282 2.63195 2.04282 2.36813 2.20553 2.20541Z" fill="black"/>
</svg>
